<svg width="936" height="191" viewBox="0 0 936 191" fill="none" xmlns="http://www.w3.org/2000/svg">
<rect width="936" height="191" fill="#1E1E1E"/>
<rect width="936" height="191" fill="#D9D9D9"/>
<path d="M326.88 140V117.6H329.92V140H326.88ZM346.893 140V117.6H350.925L360.813 136.224V117.6H363.693V140H359.725L349.773 121.504V140H346.893ZM386.543 140.256C385.327 140.256 384.26 140.224 383.343 140.16C382.447 140.096 381.551 140.021 380.655 139.936V117.664C381.658 117.557 382.639 117.483 383.599 117.44C384.559 117.376 385.658 117.344 386.895 117.344C388.815 117.344 390.468 117.643 391.855 118.24C393.263 118.837 394.415 119.659 395.311 120.704C396.228 121.749 396.9 122.965 397.327 124.352C397.775 125.717 397.999 127.189 397.999 128.768C397.999 130.325 397.775 131.797 397.327 133.184C396.879 134.571 396.186 135.797 395.247 136.864C394.33 137.909 393.146 138.741 391.695 139.36C390.266 139.957 388.548 140.256 386.543 140.256ZM386.639 137.6C388.559 137.6 390.127 137.227 391.343 136.48C392.559 135.733 393.455 134.699 394.031 133.376C394.607 132.032 394.895 130.496 394.895 128.768C394.895 127.232 394.607 125.792 394.031 124.448C393.455 123.104 392.57 122.027 391.375 121.216C390.18 120.384 388.655 119.968 386.799 119.968C386.18 119.968 385.615 119.989 385.103 120.032C384.591 120.053 384.122 120.085 383.695 120.128V137.44C384.143 137.504 384.612 137.547 385.103 137.568C385.594 137.589 386.106 137.6 386.639 137.6ZM413.667 140V117.6H416.707V140H413.667ZM439.248 140.384C437.691 140.384 436.272 140.181 434.992 139.776C433.712 139.349 432.635 138.795 431.76 138.112L433.296 135.552C434.064 136.192 434.928 136.715 435.888 137.12C436.848 137.525 437.968 137.728 439.248 137.728C440.784 137.728 442 137.408 442.896 136.768C443.792 136.128 444.24 135.264 444.24 134.176C444.24 133.557 444.112 133.013 443.856 132.544C443.6 132.053 443.099 131.584 442.352 131.136C441.627 130.667 440.549 130.165 439.12 129.632C437.584 129.035 436.357 128.437 435.44 127.84C434.523 127.221 433.861 126.528 433.456 125.76C433.072 124.971 432.88 124.043 432.88 122.976C432.88 121.909 433.168 120.949 433.744 120.096C434.341 119.221 435.205 118.528 436.336 118.016C437.488 117.483 438.875 117.216 440.496 117.216C441.819 117.216 443.003 117.355 444.048 117.632C445.115 117.888 446.149 118.261 447.152 118.752L446.032 121.344C445.307 120.917 444.453 120.565 443.472 120.288C442.512 119.989 441.499 119.84 440.432 119.84C439.024 119.84 437.915 120.117 437.104 120.672C436.293 121.227 435.888 121.941 435.888 122.816C435.888 123.371 436.005 123.861 436.24 124.288C436.475 124.715 436.933 125.131 437.616 125.536C438.32 125.941 439.365 126.4 440.752 126.912C442.416 127.531 443.728 128.181 444.688 128.864C445.669 129.547 446.363 130.293 446.768 131.104C447.173 131.893 447.376 132.8 447.376 133.824C447.376 135.211 447.024 136.395 446.32 137.376C445.637 138.357 444.677 139.104 443.44 139.616C442.224 140.128 440.827 140.384 439.248 140.384ZM463.068 140V117.664C463.942 117.557 464.902 117.483 465.948 117.44C467.014 117.376 468.113 117.344 469.244 117.344C471.1 117.344 472.678 117.643 473.98 118.24C475.281 118.816 476.273 119.616 476.956 120.64C477.638 121.664 477.98 122.837 477.98 124.16C477.98 125.76 477.585 127.115 476.796 128.224C476.006 129.333 474.908 130.187 473.5 130.784C472.092 131.36 470.46 131.648 468.604 131.648C467.708 131.648 466.876 131.616 466.108 131.552V140H463.068ZM468.988 129.12C470.886 129.12 472.358 128.693 473.404 127.84C474.449 126.987 474.972 125.845 474.972 124.416C474.972 123.029 474.47 121.931 473.468 121.12C472.465 120.309 471.036 119.904 469.18 119.904C468.604 119.904 468.06 119.915 467.548 119.936C467.036 119.957 466.556 119.989 466.108 120.032V128.96C466.449 129.003 466.865 129.045 467.356 129.088C467.846 129.109 468.39 129.12 468.988 129.12ZM492.861 140V117.6H506.301V120.224H495.901V127.04H504.861V129.6H495.901V137.376H506.301V140H492.861ZM521.811 140V117.6H525.843L535.731 136.224V117.6H538.611V140H534.643L524.691 121.504V140H521.811ZM561.142 140.384C559.584 140.384 558.166 140.181 556.886 139.776C555.606 139.349 554.528 138.795 553.654 138.112L555.19 135.552C555.958 136.192 556.822 136.715 557.782 137.12C558.742 137.525 559.862 137.728 561.142 137.728C562.678 137.728 563.894 137.408 564.79 136.768C565.686 136.128 566.134 135.264 566.134 134.176C566.134 133.557 566.006 133.013 565.75 132.544C565.494 132.053 564.992 131.584 564.246 131.136C563.52 130.667 562.443 130.165 561.014 129.632C559.478 129.035 558.251 128.437 557.334 127.84C556.416 127.221 555.755 126.528 555.35 125.76C554.966 124.971 554.774 124.043 554.774 122.976C554.774 121.909 555.062 120.949 555.638 120.096C556.235 119.221 557.099 118.528 558.23 118.016C559.382 117.483 560.768 117.216 562.39 117.216C563.712 117.216 564.896 117.355 565.942 117.632C567.008 117.888 568.043 118.261 569.046 118.752L567.926 121.344C567.2 120.917 566.347 120.565 565.366 120.288C564.406 119.989 563.392 119.84 562.326 119.84C560.918 119.84 559.808 120.117 558.998 120.672C558.187 121.227 557.782 121.941 557.782 122.816C557.782 123.371 557.899 123.861 558.134 124.288C558.368 124.715 558.827 125.131 559.51 125.536C560.214 125.941 561.259 126.4 562.646 126.912C564.31 127.531 565.622 128.181 566.582 128.864C567.563 129.547 568.256 130.293 568.662 131.104C569.067 131.893 569.27 132.8 569.27 133.824C569.27 135.211 568.918 136.395 568.214 137.376C567.531 138.357 566.571 139.104 565.334 139.616C564.118 140.128 562.72 140.384 561.142 140.384ZM600.353 140.32L597.857 133.92H587.489L584.993 140.256L582.401 139.2L591.169 117.6H594.497L603.137 139.2L600.353 140.32ZM588.449 131.36H596.865L592.673 120.608L588.449 131.36ZM624 140.256C622.699 140.256 621.462 140.224 620.288 140.16C619.136 140.096 618.219 140.021 617.536 139.936V117.664C618.283 117.579 619.211 117.504 620.32 117.44C621.43 117.376 622.699 117.344 624.128 117.344C626.859 117.344 628.96 117.867 630.432 118.912C631.904 119.936 632.64 121.333 632.64 123.104C632.64 124.277 632.32 125.28 631.68 126.112C631.062 126.923 630.155 127.595 628.96 128.128C630.411 128.64 631.51 129.355 632.256 130.272C633.003 131.168 633.376 132.277 633.376 133.6C633.376 135.627 632.576 137.248 630.976 138.464C629.376 139.659 627.051 140.256 624 140.256ZM620.576 127.264H624.096C625.782 127.264 627.115 126.912 628.096 126.208C629.099 125.504 629.6 124.597 629.6 123.488C629.6 122.293 629.11 121.387 628.128 120.768C627.147 120.128 625.803 119.808 624.096 119.808C623.392 119.808 622.752 119.829 622.176 119.872C621.6 119.893 621.067 119.925 620.576 119.968V127.264ZM624.224 137.728C626.123 137.728 627.606 137.387 628.672 136.704C629.739 136.021 630.272 135.029 630.272 133.728C630.272 132.448 629.75 131.445 628.704 130.72C627.659 129.995 626.166 129.632 624.224 129.632H620.576V137.536C621.707 137.664 622.923 137.728 624.224 137.728ZM648.893 140V117.6H651.933V137.28H662.205V140H648.893ZM676.436 140V117.6H689.876V120.224H679.476V127.04H688.436V129.6H679.476V137.376H689.876V140H676.436Z" fill="black"/>
<path d="M329.76 71V26.2H335.84V71H329.76ZM350.585 71V26.2H377.145V31.448H356.665V45.144H373.753V50.136H356.665V71H350.585ZM388.035 71V26.2H394.115V65.56H414.659V71H388.035Z" fill="black"/>
<rect x="324" y="86" width="603" height="8" fill="#FFFF00"/>
<rect x="23" y="164" width="677" height="8" fill="#FFFF00"/>
</svg>
